<?xml version="1.0" encoding="utf-8"?>
<!-- Generator: Adobe Illustrator 16.0.0, SVG Export Plug-In . SVG Version: 6.00 Build 0)  -->
<!DOCTYPE svg PUBLIC "-//W3C//DTD SVG 1.1//EN" "http://www.w3.org/Graphics/SVG/1.1/DTD/svg11.dtd">
<svg version="1.1" id="Ebene_1" xmlns="http://www.w3.org/2000/svg" xmlns:xlink="http://www.w3.org/1999/xlink" x="0px" y="0px"
	 width="1101px" height="425px" viewBox="0 0 1101 425" style="enable-background:new 0 0 1101 425;" xml:space="preserve">
<path style="fill:#6ECAAD;" d="M376.36,209.55c0,77.87-34.56,112.92-112.92,112.92c-80.8,0-112.92-28.72-112.92-112.92
	c0-80.8,36.99-111.46,112.92-111.46C341.31,98.09,376.36,130.21,376.36,209.55z"/>
<g>
	<path style="fill:#6ECAAD;" d="M518.89,253.73c0.93,3.28,2.57,6.22,4.92,8.82c-1.24,1.24-2.69,2.23-4.36,2.97
		c-1.67,0.74-3.25,1.12-4.73,1.12c-2.48,0-4.55-1.42-6.22-4.27c-1.67-2.85-2.76-6.75-3.25-11.7c-3.84,5.2-8.98,9.32-15.41,12.35
		c-6.44,3.03-13.19,4.55-20.24,4.55c-9.41,0-16.96-2.44-22.65-7.33c-5.7-4.89-8.54-11.3-8.54-19.22c0-11.63,5.67-20.73,16.99-27.3
		c11.33-6.56,27.82-10.33,49.49-11.33v-5.94c0-8.17-2.07-14.27-6.22-18.29c-4.15-4.02-10.43-6.04-18.85-6.04
		c-5.45,0-10.49,1.15-15.14,3.44c-4.64,2.29-9.63,6.1-14.95,11.42c-0.74,0.74-1.67,1.11-2.78,1.11c-1.24,0-2.6-0.53-4.09-1.58
		c-1.49-1.05-2.91-2.57-4.27-4.55c5.57-6.56,11.91-11.57,19.04-15.04c7.12-3.46,14.7-5.2,22.75-5.2c11.51,0,20.58,3.1,27.21,9.29
		c6.62,6.19,9.93,14.67,9.93,25.44v43.83C517.5,245.97,517.96,250.46,518.89,253.73z M489.46,251.6
		c5.94-3.71,11.08-8.97,15.41-15.78v-23.03c-35.66,1.49-53.48,10.83-53.48,28.04c0,10.89,6.37,16.34,19.13,16.34
		C477.2,257.17,483.52,255.31,489.46,251.6z"/>
	<path style="fill:#6ECAAD;" d="M624,257.26c0.19,2.66,0.65,5.05,1.39,7.15c-2.97,1.49-6.19,2.23-9.66,2.23
		c-1.86,0-3.1-1.33-3.71-3.99c-0.62-2.66-0.93-7.95-0.93-15.88v-50.33c0-8.66-1.61-14.95-4.83-18.85c-3.22-3.9-8.42-5.85-15.6-5.85
		c-11.14,0-22.54,5.51-34.17,16.53v77.44h-12.63V198.3c0-18.32-0.74-29.21-2.23-32.68c3.96-1.86,7.12-2.79,9.47-2.79
		c3.59,0,5.38,3.59,5.38,10.77v1.67c5.69-4.7,11.42-8.14,17.18-10.31c5.76-2.16,11.85-3.25,18.29-3.25c10.65,0,18.6,2.88,23.86,8.63
		c5.26,5.76,7.89,14.52,7.89,26.28v45.31C623.72,249.5,623.81,254.6,624,257.26z"/>
	<path style="fill:#6ECAAD;" d="M722.88,163.58l-39.55,109.93c-3.47,9.78-7.83,16.93-13.09,21.45c-5.26,4.52-11.92,6.78-19.96,6.78
		c-4.71,0-8.42-0.71-11.14-2.14c-2.73-1.42-4.09-3.31-4.09-5.66c0-2.48,1.05-4.46,3.16-5.94c1.24,0.86,3.13,1.61,5.66,2.23
		c2.54,0.62,5.04,0.93,7.52,0.93c5.07,0,9.44-2.23,13.09-6.69c3.65-4.46,6.78-11.27,9.38-20.43l-36.4-100.46h13.37l29.53,82.26
		l29.15-82.26H722.88z"/>
	<path style="fill:#6ECAAD;" d="M813.96,175.09c7.49,8.91,11.23,21.54,11.23,37.88c0,17.08-3.9,30.46-11.7,40.11
		c-7.8,9.66-18.57,14.48-32.31,14.48c-13.12,0-23.4-3.9-30.82-11.7c-1.12,6.56-3.28,9.84-6.5,9.84c-3.71,0-6.81-0.74-9.28-2.23
		c2.35-5.2,3.53-12.63,3.53-22.29V118.82h13v52.37c9.04-6.31,19.38-9.47,31.01-9.47C795.86,161.72,806.47,166.18,813.96,175.09z
		 M804.12,245.38c5.39-7.61,8.08-18.41,8.08-32.4c0-13.12-2.6-23.21-7.8-30.27c-5.2-7.06-12.63-10.59-22.29-10.59
		c-11.39,0-21.73,3.53-31.01,10.59v60.35c7.3,9.16,17.33,13.74,30.08,13.74C791.09,256.8,798.74,252.99,804.12,245.38z"/>
	<path style="fill:#6ECAAD;" d="M844.69,136.46v-1.67c0-5.57,2.79-8.36,8.36-8.36h1.48c5.57,0,8.36,2.79,8.36,8.36v1.67
		c0,5.57-2.79,8.36-8.36,8.36h-1.48C847.48,144.82,844.69,142.04,844.69,136.46z M847.48,163.58h12.63v102.13h-12.63V163.58z"/>
	<path style="fill:#6ECAAD;" d="M893.53,118.82h12.63v146.89h-12.63V118.82z"/>
	<path style="fill:#6ECAAD;" d="M937.72,118.82h12.63v146.89h-12.63V118.82z"/>
</g>
<g>
	<g>
		<g id="noun_bill_1844615_2_" transform="translate(148.15 171.285)">
			<g id="Gruppe_4_2_" transform="translate(98.938 55.086)">
				<path id="Pfad_23_5_" style="fill:#FFFFFF;" d="M-37.94-83.08V48.9c0,1.91,1.55,3.46,3.46,3.46c0.87,0,1.7-0.32,2.34-0.92
					l12.03-11.09c1.3-1.21,3.32-1.23,4.64-0.04l7.88,7.04c3.95,3.53,9.92,3.52,13.85-0.03l7.77-7.01c1.31-1.2,3.32-1.2,4.63,0
					l7.77,7.01c3.93,3.55,9.9,3.57,13.85,0.04l7.88-7.03c1.33-1.19,3.34-1.17,4.65,0.04l12.02,11.09c1.4,1.3,3.59,1.21,4.89-0.2
					c0.59-0.64,0.91-1.47,0.91-2.34V-83.08c0-1.91-1.55-3.46-3.46-3.46H-34.48C-36.39-86.53-37.94-84.99-37.94-83.08z M-31.03-79.62
					h94.74V41.01l-6.23-5.74c-3.91-3.64-9.96-3.68-13.93-0.11l-7.88,7.03c-1.31,1.18-3.31,1.18-4.62-0.01l-7.77-7.01
					c-3.94-3.57-9.95-3.57-13.89,0l-7.77,7.01c-1.31,1.19-3.3,1.19-4.62,0.01l-7.88-7.03c-3.97-3.57-10.02-3.53-13.93,0.11
					l-6.23,5.74L-31.03-79.62L-31.03-79.62z"/>
				<path id="Pfad_24_2_" style="fill:#FFFFFF;" d="M-6.75-30.27h44.36c1.91-0.04,3.42-1.63,3.38-3.54
					c-0.05-1.85-1.53-3.33-3.38-3.38H-6.75c-1.91,0.04-3.42,1.63-3.38,3.54C-10.09-31.8-8.6-30.31-6.75-30.27z"/>
				<path id="Pfad_25_2_" style="fill:#FFFFFF;" d="M-6.75-8.66h44.36c1.91-0.05,3.42-1.63,3.38-3.54
					c-0.05-1.84-1.53-3.33-3.38-3.38H-6.75c-1.91-0.05-3.49,1.47-3.54,3.38c-0.05,1.91,1.46,3.49,3.37,3.54
					C-6.86-8.66-6.81-8.66-6.75-8.66z"/>
				<path id="Pfad_26_2_" style="fill:#FFFFFF;" d="M-6.75-52.05h44.36c1.91-0.04,3.42-1.63,3.38-3.54
					c-0.05-1.84-1.53-3.33-3.38-3.37H-6.75c-1.91,0.04-3.42,1.63-3.38,3.54C-10.09-53.58-8.6-52.09-6.75-52.05z"/>
				<path id="Pfad_27_2_" style="fill:#FFFFFF;" d="M-6.75,13.11h44.36c1.91-0.04,3.42-1.63,3.38-3.54
					c-0.05-1.84-1.53-3.33-3.38-3.37H-6.75c-1.91-0.05-3.49,1.46-3.54,3.37c-0.05,1.91,1.46,3.49,3.37,3.54
					C-6.86,13.11-6.81,13.11-6.75,13.11z"/>
			</g>
		</g>
	</g>
</g>
</svg>
